<svg xmlns="http://www.w3.org/2000/svg" version="1.1" xmlns:xlink="http://www.w3.org/1999/xlink" xmlns:svgjs="http://svgjs.dev/svgjs" width="259" height="200" viewBox="0 0 1000 1125"><g transform="matrix(1,0,0,1,1.7053025658242404e-13,0)"><svg viewBox="0 0 320 360" data-background-color="#ffffff" preserveAspectRatio="xMidYMid meet" height="1125" width="1000" xmlns="http://www.w3.org/2000/svg" xmlns:xlink="http://www.w3.org/1999/xlink"><g id="tight-bounds" transform="matrix(1,0,0,1,0,0)"><svg viewBox="0 0 320 360" height="360" width="320"><g><svg></svg></g><g><svg viewBox="0 0 320 360" height="360" width="320"><g><path xmlns="http://www.w3.org/2000/svg" d="M20.961 227.22l3.726 4.658-1.863-6.056c-0.466-2.795-3.726 0.466-1.863 1.398M25.153 224.425c1.397 2.329 2.795 4.658 2.795 6.987 0 3.261 2.795 4.658 5.123 5.589-3.261-3.726-5.124-13.974-7.918-12.576M204.017 26.929c7.918 0 15.371-0.932 23.756 0.931 20.495 5.124 37.729 15.371 49.374 29.811l32.606 52.169c1.397 13.042 4.192 27.482 3.726 43.319 3.261 0 2.795-4.658 6.521-5.59-3.726 9.316-5.59 20.961-6.521 34.469-2.329-7.453 0-18.632 0.466-24.687-3.261 5.124-5.124 1.397-5.124-0.932 0.466-3.726-1.397-3.261-2.795-4.658-5.124-4.658-8.384-9.782-12.11-17.7 2.329-6.055 2.795-14.905-4.658-19.563-2.329-1.397-5.124-3.726-6.521-7.453-1.863-5.124-5.124-11.179-4.193-19.097 0.466-2.329-6.987 5.124-11.179 1.863-18.166-12.576-36.332-27.016-58.224-39.127-11.645 0-20.029-4.192-24.221-9.316-3.726-4.658-0.932-10.713 4.658-11.179 3.261 0 6.987-0.932 9.782 0.932 0.466-1.863 2.329-4.192 4.657-4.192M157.904 16.215l0.932 0.466c4.658 0.932 6.987 7.453 12.11 5.124 0 3.261 0.466 6.521-0.466 8.85-1.397 3.726-5.59 3.726-8.85 3.726-31.208-1.863-49.374 11.179-68.471 22.358-5.124 3.261-10.713 5.59-14.906 9.782-20.029 18.632-41.921 35.866-47.045 70.335l-4.192 38.195c-0.466 4.192-5.124 8.384-4.192 13.508l3.26 22.824c-3.261-3.261-5.124 0.932-4.192 2.795 0.466 1.397 2.329 6.055 5.124 1.863 3.726 6.987 7.453 20.495 12.576 26.55 15.837 18.632 36.332 35.4 53.101 52.169 4.192-0.932 7.453-0.932 8.384-3.727 1.397 2.795-1.397 5.59-3.726 6.056 7.453 4.658 15.837 8.85 27.016 9.781 14.44 0.932 27.948 3.261 40.524 6.522 6.521-1.863 13.042-2.795 20.029-3.261 2.329 0 3.726-3.726 6.521-4.658l0.466-4.658c2.795 4.192 2.329-1.397 0.466-4.192 3.261 2.795 4.192 5.124 5.589 6.987 0-1.397 3.726-6.521 3.727-0.466l0.931-6.055c1.397-0.932 1.863 5.124 3.261 0.931 1.397-4.192 4.192-0.932 6.987-2.329-0.932 1.863-0.466 5.59 2.794 3.261l3.727-3.261c2.329 5.59 6.055 3.261 7.918 2.329 20.495-13.042 40.99-28.413 60.553-43.784l-0.466 6.055 2.329-7.453c2.329 2.329 4.192 0.466 5.124-0.931 2.795-4.658 6.521-9.316 12.577-13.508-7.453 20.029-16.303 35.866-27.482 48.908l-4.658 5.59c0 3.261-0.932 7.453-4.658 7.918-1.863 0.466-5.59-0.932-8.384 1.863-1.397 1.863 3.261 5.59-0.466 2.795-3.261-2.329-6.521 0-10.248 0.932-2.795 0.932 1.863 3.726 2.795 5.589 0.932 1.863 1.863 3.726 1.398 6.056l-5.124-5.59c-6.055 3.261-9.782 9.316-14.906 13.974-2.329 1.863-1.397 5.124-1.397 7.918-3.261 0-6.987-0.932-8.85 0.932-1.397 1.863-0.932 4.658-0.932 7.453-4.658-0.466-5.124-7.453-9.315-6.056-4.192 0.932-8.85 1.397-12.577 3.727 2.795 5.59-4.658 2.329-3.726 3.26-6.987-4.192-13.042-7.453-20.495-4.658-15.837-5.124-35.4-2.795-49.84-0.931 0-2.329 0.466-4.658-0.466-5.124-0.932 2.329-3.726 1.397-3.26 1.397-8.85-6.055-17.7-9.782-27.016-14.905-8.384 0.932-16.303-3.261-18.632-5.59-6.521-6.055-13.974-2.795-20.029-4.192-13.042-3.261-17.7-16.769-19.098-26.084-0.932-4.658-4.658-6.521-6.055-6.056-6.055-19.563-15.371-37.263-22.824-55.429-1.863-4.658-1.397-9.316-1.397-14.44 2.329 0.932 4.658 0.466 4.192-2.794-2.329-15.371-7.918-27.016-13.974-38.195 3.261-15.837 3.726-34.469 11.179-48.443 6.521-12.576 18.632-19.098 27.016-29.811 2.795-3.726 2.795-8.85 5.59-12.11 9.316-9.316 18.632-19.098 28.879-27.482 4.658-3.726 10.247 0 17.234-1.397 2.329-8.384 11.645-15.837 20.495-13.508 3.726 0.932 11.179-8.85 13.508-9.782 3.726-1.397 1.863 3.726 1.863 6.987 8.85-6.987 20.961-10.713 32.14-14.906" fill="#ff1807" fill-rule="nonzero" stroke="none" stroke-width="1" stroke-linecap="butt" stroke-linejoin="miter" stroke-miterlimit="10" stroke-dasharray="" stroke-dashoffset="0" font-family="none" font-weight="none" font-size="none" text-anchor="none" style="mix-blend-mode: normal" data-fill-palette-color="tertiary"></path></g><g transform="matrix(1,0,0,1,100.34371856287424,90)"><svg viewBox="0 0 119.31256287425153 180" height="180" width="119.31256287425153"><g><svg viewBox="0 0 119.31256287425153 180" height="180" width="119.31256287425153"><g><svg viewBox="0 0 119.31256287425153 180" height="180" width="119.31256287425153"><g><svg viewBox="0 0 119.31256287425153 180" height="180" width="119.31256287425153"><g><svg viewBox="0 0 119.31256287425153 180" height="180" width="119.31256287425153"><path d="M119.033 38.607C118.472 19.923 116.874 14.728 116.874 14.728 111.966-4.516 105.841-0.368 100.338 2.397 90.623 2.509 80.947 6.62 71.255 8.824 50.91 9.161 30.392 3.63 10.149 17.27 8.247 21.455-1.973 18.092 0.338 40.998 0.944 50.527 3.154 61.102 3.087 69.846 3.39 71.378 3.81 67.866 3.99 70.07 4.618 76.012 5.644 73.209 6.486 76.722 5.314 86.101 6.155 93.911 6.957 102.095 5.544 104.225 3.732 103.216 2.918 110.278 2.834 115.398 2.38 114.426 1.881 114.202 1.516 114.052 0.781 114.613 0.905 116.22 1.325 121.713-0.481 124.889 0.652 130.27-0.127 136.099 1.191 141.144 1.011 147.459 0.989 148.73 1.112 149.813 1.309 150.112 2.178 151.719 0.91 154.858 1.045 158.258 9.964 181.501 19.639 165.433 28.777 176.12 31.149 168.647 29.366 178.773 30.313 177.204 31.054 175.373 31.592 182.959 32.428 178.661 32.557 177.428 32.361 174.514 32.821 175.074 33.062 175.373 33.275 175.298 33.309 173.579 33.359 171.001 32.916 172.608 32.798 171.263 34.072 164.462 33.757 180.642 34.952 179.969 34.896 177.989 34.548 175.149 35.261 175.522 35.967 172.682 35.99 170.328 36.618 176.718 36.641 178.101 36.753 179.072 36.932 179.745 38.895 172.795 40.847 182.211 42.906 179.072 44.168 175.635 45.38 180.941 46.659 179.633 47.107 178.587 47.562 176.718 47.993 179.857 53.283 180.53 58.92 177.727 63.935 179.969 77.335 175.784 91.655 181.688 105.784 176.158 109.116 174.028 112.577 171.001 115.825 168.572 115.825 168.572 118.455 161.921 118.455 132.026S119.016 105.869 119.101 82.065C119.185 58.262 119.577 57.29 119.016 38.607Z" opacity="1" fill="#ff1807" data-fill-palette-color="tertiary"></path><g transform="matrix(1,0,0,1,27.072000000000003,19.1)"><svg width="65.16856287425152" viewBox="1.6500000953674316 -33.400001525878906 15.350000381469727 33.400001525878906" height="141.8" data-palette-color="#ffffff"><path d="M17-1.2L17 0 1.65 0 1.65-1.2 6-1.65 6-31.75 1.65-32.2 1.65-33.4 17-33.4 17-32.2 12.65-31.75 12.65-1.65 17-1.2Z" opacity="1" transform="matrix(1,0,0,1,0,0)" fill="#ffffff" class="undefined-text-0" data-fill-palette-color="quaternary" id="text-0"></path></svg></g></svg></g></svg></g></svg></g><g></g></svg></g></svg></g></svg></g><defs></defs></svg><rect width="320" height="360" fill="none" stroke="none" visibility="hidden"></rect></g></svg></g></svg>